<svg width="247" height="71" viewBox="0 0 247 71" fill="none" xmlns="http://www.w3.org/2000/svg">
<g filter="url(#filter0_d_2_124)">
<path d="M0 0H245C246.105 0 247 0.895431 247 2V68C247 69.1046 246.105 70 245 70H0V0Z" fill="#E50914"/>
</g>
<path fill-rule="evenodd" clip-rule="evenodd" d="M206.118 26.5147L207.548 25.3187L215.34 35.5L207.548 45.6813L206.118 44.4853L212.993 35.5L206.118 26.5147Z" fill="white"/>
<path d="M42.6696 46.45C40.6696 46.45 38.8996 45.98 37.3596 45.04C35.8396 44.1 34.6496 42.81 33.7896 41.17C32.9496 39.53 32.5296 37.66 32.5296 35.56C32.5296 33.44 32.9596 31.56 33.8196 29.92C34.6796 28.28 35.8696 27 37.3896 26.08C38.9296 25.14 40.6796 24.67 42.6396 24.67C44.8396 24.67 46.7196 25.19 48.2796 26.23C49.8396 27.25 50.9396 28.68 51.5796 30.52H48.5796C48.1396 29.56 47.3996 28.78 46.3596 28.18C45.3196 27.58 44.0796 27.28 42.6396 27.28C41.2396 27.28 39.9996 27.62 38.9196 28.3C37.8396 28.98 36.9896 29.94 36.3696 31.18C35.7496 32.4 35.4396 33.86 35.4396 35.56C35.4396 37.22 35.7396 38.68 36.3396 39.94C36.9596 41.18 37.8096 42.14 38.8896 42.82C39.9896 43.5 41.2696 43.84 42.7296 43.84C43.9896 43.84 45.0996 43.58 46.0596 43.06C47.0396 42.52 47.7996 41.79 48.3396 40.87C48.8996 39.95 49.1796 38.9 49.1796 37.72V37.18H42.6396V34.63H52.0296V37.24C52.0296 39 51.6396 40.58 50.8596 41.98C50.0796 43.36 48.9896 44.45 47.5896 45.25C46.1896 46.05 44.5496 46.45 42.6696 46.45ZM62.3596 46.42C60.8396 46.42 59.5196 46.09 58.3996 45.43C57.2996 44.77 56.4496 43.83 55.8496 42.61C55.2496 41.39 54.9496 39.95 54.9496 38.29C54.9496 36.73 55.2396 35.35 55.8196 34.15C56.4196 32.93 57.2596 31.97 58.3396 31.27C59.4396 30.57 60.7496 30.22 62.2696 30.22C63.7296 30.22 64.9596 30.55 65.9596 31.21C66.9596 31.85 67.7196 32.75 68.2396 33.91C68.7596 35.05 69.0196 36.39 69.0196 37.93V39.19H57.7096C57.8496 40.75 58.3196 41.95 59.1196 42.79C59.9196 43.61 61.0096 44.02 62.3896 44.02C63.2896 44.02 64.0496 43.87 64.6696 43.57C65.3096 43.25 65.7296 42.84 65.9296 42.34H68.6896C68.3296 43.58 67.5796 44.57 66.4396 45.31C65.2996 46.05 63.9396 46.42 62.3596 46.42ZM62.2396 32.62C60.9796 32.62 59.9596 33.01 59.1796 33.79C58.4196 34.55 57.9496 35.61 57.7696 36.97H66.3196C66.2596 35.67 65.8896 34.62 65.2096 33.82C64.5496 33.02 63.5596 32.62 62.2396 32.62ZM78.2288 46.12C76.7688 46.12 75.6488 45.72 74.8688 44.92C74.0888 44.1 73.6988 42.91 73.6988 41.35V33.04H70.9688V30.64H73.6988V25.75C74.5788 25.69 75.4688 25.52 76.3688 25.24V30.64H79.7288V33.04H76.3688V41.11C76.3688 41.95 76.5688 42.6 76.9688 43.06C77.3888 43.5 77.9688 43.72 78.7088 43.72H79.7288V46.12H78.2288ZM97.6346 46.45C95.3947 46.45 93.5147 45.93 91.9947 44.89C90.4947 43.85 89.5147 42.39 89.0547 40.51H91.9647C92.3047 41.55 92.9647 42.37 93.9447 42.97C94.9247 43.55 96.1447 43.84 97.6047 43.84C99.0247 43.84 100.215 43.55 101.175 42.97C102.135 42.37 102.615 41.51 102.615 40.39C102.615 39.75 102.485 39.2 102.225 38.74C101.965 38.28 101.505 37.89 100.845 37.57C100.185 37.23 99.2347 36.97 97.9947 36.79L95.5047 36.4C93.5047 36.08 92.0147 35.48 91.0347 34.6C90.0747 33.72 89.5947 32.44 89.5947 30.76C89.5947 29.52 89.9347 28.45 90.6147 27.55C91.3146 26.63 92.2447 25.92 93.4047 25.42C94.5847 24.92 95.8947 24.67 97.3347 24.67C98.6747 24.67 99.8947 24.88 100.995 25.3C102.095 25.72 103.015 26.35 103.755 27.19C104.495 28.01 104.985 29.06 105.225 30.34H102.315C102.055 29.26 101.485 28.48 100.605 28C99.7447 27.52 98.6647 27.28 97.3647 27.28C95.9047 27.28 94.7247 27.58 93.8247 28.18C92.9447 28.76 92.5047 29.57 92.5047 30.61C92.5047 31.51 92.8147 32.21 93.4347 32.71C94.0547 33.19 95.2347 33.57 96.9747 33.85L99.3147 34.21C101.455 34.53 103.025 35.19 104.025 36.19C105.025 37.17 105.525 38.51 105.525 40.21C105.525 41.51 105.185 42.63 104.505 43.57C103.825 44.51 102.885 45.23 101.685 45.73C100.505 46.21 99.1547 46.45 97.6346 46.45ZM114.828 46.12C113.368 46.12 112.248 45.72 111.468 44.92C110.688 44.1 110.298 42.91 110.298 41.35V33.04H107.568V30.64H110.298V25.75C111.178 25.69 112.068 25.52 112.968 25.24V30.64H116.328V33.04H112.968V41.11C112.968 41.95 113.168 42.6 113.568 43.06C113.988 43.5 114.568 43.72 115.308 43.72H116.328V46.12H114.828ZM123.802 46.42C122.222 46.42 120.952 46 119.992 45.16C119.032 44.3 118.552 43.14 118.552 41.68C118.552 40.12 119.112 38.91 120.232 38.05C121.372 37.17 122.982 36.73 125.062 36.73H128.692V36.07C128.692 34.83 128.372 33.95 127.732 33.43C127.112 32.89 126.252 32.62 125.152 32.62C124.232 32.62 123.472 32.8 122.872 33.16C122.272 33.52 121.902 33.96 121.762 34.48H119.062C119.322 33.22 119.992 32.2 121.072 31.42C122.172 30.62 123.542 30.22 125.182 30.22C127.082 30.22 128.582 30.71 129.682 31.69C130.802 32.67 131.362 34.2 131.362 36.28V46H128.842V43.69C128.302 44.61 127.572 45.3 126.652 45.76C125.732 46.2 124.782 46.42 123.802 46.42ZM124.402 44.08C125.062 44.08 125.722 43.93 126.382 43.63C127.042 43.33 127.592 42.89 128.032 42.31C128.472 41.71 128.692 40.96 128.692 40.06V38.92H125.242C123.982 38.92 123.002 39.14 122.302 39.58C121.602 40.02 121.252 40.68 121.252 41.56C121.252 42.38 121.542 43.01 122.122 43.45C122.722 43.87 123.482 44.08 124.402 44.08ZM138.486 38.23V46H135.816V30.64H138.426V33.37C138.906 32.47 139.536 31.78 140.316 31.3C141.096 30.8 141.966 30.55 142.926 30.55H143.406V33.13H142.866C142.086 33.13 141.366 33.32 140.706 33.7C140.046 34.08 139.506 34.65 139.086 35.41C138.686 36.17 138.486 37.11 138.486 38.23ZM152.452 46.12C150.992 46.12 149.872 45.72 149.092 44.92C148.312 44.1 147.922 42.91 147.922 41.35V33.04H145.192V30.64H147.922V25.75C148.802 25.69 149.692 25.52 150.592 25.24V30.64H153.952V33.04H150.592V41.11C150.592 41.95 150.792 42.6 151.192 43.06C151.612 43.5 152.192 43.72 152.932 43.72H153.952V46.12H152.452ZM163.736 46.42C162.216 46.42 160.896 46.09 159.776 45.43C158.676 44.77 157.826 43.83 157.226 42.61C156.626 41.39 156.326 39.95 156.326 38.29C156.326 36.73 156.616 35.35 157.196 34.15C157.796 32.93 158.636 31.97 159.716 31.27C160.816 30.57 162.126 30.22 163.646 30.22C165.106 30.22 166.336 30.55 167.336 31.21C168.336 31.85 169.096 32.75 169.616 33.91C170.136 35.05 170.396 36.39 170.396 37.93V39.19H159.086C159.226 40.75 159.696 41.95 160.496 42.79C161.296 43.61 162.386 44.02 163.766 44.02C164.666 44.02 165.426 43.87 166.046 43.57C166.686 43.25 167.106 42.84 167.306 42.34H170.066C169.706 43.58 168.956 44.57 167.816 45.31C166.676 46.05 165.316 46.42 163.736 46.42ZM163.616 32.62C162.356 32.62 161.336 33.01 160.556 33.79C159.796 34.55 159.326 35.61 159.146 36.97H167.696C167.636 35.67 167.266 34.62 166.586 33.82C165.926 33.02 164.936 32.62 163.616 32.62ZM179.995 46.42C178.655 46.42 177.465 46.08 176.425 45.4C175.385 44.7 174.575 43.74 173.995 42.52C173.415 41.3 173.125 39.9 173.125 38.32C173.125 36.72 173.415 35.32 173.995 34.12C174.575 32.9 175.385 31.95 176.425 31.27C177.465 30.57 178.655 30.22 179.995 30.22C181.095 30.22 182.075 30.47 182.935 30.97C183.795 31.47 184.495 32.16 185.035 33.04V24.25H187.705V46H185.095V43.51C184.555 44.41 183.855 45.12 182.995 45.64C182.135 46.16 181.135 46.42 179.995 46.42ZM180.475 43.96C181.855 43.96 182.975 43.44 183.835 42.4C184.715 41.36 185.155 40 185.155 38.32C185.155 36.64 184.715 35.28 183.835 34.24C182.975 33.2 181.855 32.68 180.475 32.68C179.115 32.68 178.005 33.2 177.145 34.24C176.285 35.26 175.855 36.62 175.855 38.32C175.855 40.02 176.285 41.39 177.145 42.43C178.005 43.45 179.115 43.96 180.475 43.96Z" fill="white"/>
<defs>
<filter id="filter0_d_2_124" x="0" y="0" width="247" height="71" filterUnits="userSpaceOnUse" color-interpolation-filters="sRGB">
<feFlood flood-opacity="0" result="BackgroundImageFix"/>
<feColorMatrix in="SourceAlpha" type="matrix" values="0 0 0 0 0 0 0 0 0 0 0 0 0 0 0 0 0 0 127 0" result="hardAlpha"/>
<feOffset dy="1"/>
<feColorMatrix type="matrix" values="0 0 0 0 0 0 0 0 0 0 0 0 0 0 0 0 0 0 0.45 0"/>
<feBlend mode="normal" in2="BackgroundImageFix" result="effect1_dropShadow_2_124"/>
<feBlend mode="normal" in="SourceGraphic" in2="effect1_dropShadow_2_124" result="shape"/>
</filter>
</defs>
</svg>
