<svg width="84" height="34" viewBox="0 0 84 34" fill="none" xmlns="http://www.w3.org/2000/svg">
<path d="M0 3C0 1.34315 1.34315 0 3 0H81C82.6569 0 84 1.34315 84 3V31C84 32.6569 82.6569 34 81 34H3C1.34314 34 0 32.6569 0 31V3Z" fill="#E50914"/>
<path d="M22.184 23.24C20.9893 23.24 19.9867 22.9627 19.176 22.408C18.376 21.8533 17.8533 21.0747 17.608 20.072H19.16C19.3413 20.6267 19.6933 21.064 20.216 21.384C20.7387 21.6933 21.3893 21.848 22.168 21.848C22.9253 21.848 23.56 21.6933 24.072 21.384C24.584 21.064 24.84 20.6053 24.84 20.008C24.84 19.6667 24.7707 19.3733 24.632 19.128C24.4933 18.8827 24.248 18.6747 23.896 18.504C23.544 18.3227 23.0373 18.184 22.376 18.088L21.048 17.88C19.9813 17.7093 19.1867 17.3893 18.664 16.92C18.152 16.4507 17.896 15.768 17.896 14.872C17.896 14.2107 18.0773 13.64 18.44 13.16C18.8133 12.6693 19.3093 12.2907 19.928 12.024C20.5573 11.7573 21.256 11.624 22.024 11.624C22.7387 11.624 23.3893 11.736 23.976 11.96C24.5627 12.184 25.0533 12.52 25.448 12.968C25.8427 13.4053 26.104 13.9653 26.232 14.648H24.68C24.5413 14.072 24.2373 13.656 23.768 13.4C23.3093 13.144 22.7333 13.016 22.04 13.016C21.2613 13.016 20.632 13.176 20.152 13.496C19.6827 13.8053 19.448 14.2373 19.448 14.792C19.448 15.272 19.6133 15.6453 19.944 15.912C20.2747 16.168 20.904 16.3707 21.832 16.52L23.08 16.712C24.2213 16.8827 25.0587 17.2347 25.592 17.768C26.1253 18.2907 26.392 19.0053 26.392 19.912C26.392 20.6053 26.2107 21.2027 25.848 21.704C25.4853 22.2053 24.984 22.5893 24.344 22.856C23.7147 23.112 22.9947 23.24 22.184 23.24ZM29.0763 13.624C28.8096 13.624 28.5749 13.528 28.3723 13.336C28.1803 13.144 28.0843 12.9093 28.0843 12.632C28.0843 12.3547 28.1803 12.12 28.3723 11.928C28.5749 11.736 28.8096 11.64 29.0763 11.64C29.3536 11.64 29.5883 11.736 29.7803 11.928C29.9723 12.12 30.0683 12.3547 30.0683 12.632C30.0683 12.9093 29.9723 13.144 29.7803 13.336C29.5883 13.528 29.3536 13.624 29.0763 13.624ZM28.3563 23V14.808H29.7803V23H28.3563ZM35.3364 23.048C34.6217 23.048 33.987 22.8667 33.4324 22.504C32.8777 22.1413 32.4457 21.64 32.1364 21C31.827 20.36 31.6724 19.6347 31.6724 18.824C31.6724 18.0027 31.827 17.272 32.1364 16.632C32.4457 15.992 32.8777 15.4907 33.4324 15.128C33.987 14.7653 34.6217 14.584 35.3364 14.584C35.9444 14.584 36.4777 14.7227 36.9364 15C37.395 15.2667 37.7684 15.6347 38.0564 16.104V14.808H39.4484V22.76C39.4484 23.944 39.123 24.8613 38.4724 25.512C37.8217 26.1733 36.915 26.504 35.7524 26.504C34.7604 26.504 33.939 26.2853 33.2884 25.848C32.6377 25.4107 32.2164 24.8507 32.0244 24.168H33.5604C33.731 24.4667 33.9924 24.712 34.3444 24.904C34.6964 25.096 35.155 25.192 35.7204 25.192C36.4777 25.192 37.0484 25 37.4324 24.616C37.827 24.232 38.0244 23.64 38.0244 22.84V21.56C37.7364 22.0187 37.363 22.3813 36.9044 22.648C36.4457 22.9147 35.923 23.048 35.3364 23.048ZM35.5924 21.736C36.083 21.736 36.515 21.6133 36.8884 21.368C37.2617 21.112 37.555 20.7653 37.7684 20.328C37.9817 19.8907 38.0884 19.384 38.0884 18.808C38.0884 18.232 37.9817 17.7253 37.7684 17.288C37.555 16.8507 37.2617 16.5093 36.8884 16.264C36.515 16.0187 36.083 15.896 35.5924 15.896C35.1124 15.896 34.6857 16.0187 34.3124 16.264C33.939 16.5093 33.6457 16.8507 33.4324 17.288C33.2297 17.7253 33.1284 18.232 33.1284 18.808C33.1284 19.384 33.2297 19.8907 33.4324 20.328C33.6457 20.7653 33.939 21.112 34.3124 21.368C34.6857 21.6133 35.1124 21.736 35.5924 21.736ZM43.2646 18.152V23H41.8406V14.808H43.2326V15.912C43.5206 15.4853 43.8886 15.16 44.3366 14.936C44.7846 14.7013 45.2753 14.584 45.8086 14.584C46.4166 14.584 46.934 14.728 47.3606 15.016C47.798 15.304 48.134 15.6987 48.3686 16.2C48.6033 16.7013 48.7206 17.2773 48.7206 17.928V23H47.2966V18.2C47.2966 17.4853 47.1366 16.9253 46.8166 16.52C46.5073 16.104 46.038 15.896 45.4086 15.896C45.0353 15.896 44.6833 15.9867 44.3526 16.168C44.022 16.3387 43.7553 16.5947 43.5526 16.936C43.3606 17.2667 43.2646 17.672 43.2646 18.152ZM56.5381 23H55.0181V11.864H56.5381V23ZM60.6084 18.152V23H59.1844V14.808H60.5764V15.912C60.8644 15.4853 61.2324 15.16 61.6804 14.936C62.1284 14.7013 62.619 14.584 63.1524 14.584C63.7604 14.584 64.2777 14.728 64.7044 15.016C65.1417 15.304 65.4777 15.6987 65.7124 16.2C65.947 16.7013 66.0644 17.2773 66.0644 17.928V23H64.6404V18.2C64.6404 17.4853 64.4804 16.9253 64.1604 16.52C63.851 16.104 63.3817 15.896 62.7524 15.896C62.379 15.896 62.027 15.9867 61.6964 16.168C61.3657 16.3387 61.099 16.5947 60.8964 16.936C60.7044 17.2667 60.6084 17.672 60.6084 18.152Z" fill="white"/>
</svg>
